<svg width="25" height="25" viewBox="0 0 25 25" fill="none" xmlns="http://www.w3.org/2000/svg">
<path d="M12.5 24.6667C8.5528 24.6667 5.78373 24.5185 4.0392 24.3766C2.2856 24.2342 0.932533 22.8811 0.790133 21.1275C0.648267 19.383 0.5 16.6139 0.5 12.6667C0.5 8.71955 0.648267 5.95048 0.790133 4.20595C0.932533 2.45235 2.2856 1.09928 4.0392 0.956881C5.78373 0.815015 8.5528 0.666748 12.5 0.666748C16.4472 0.666748 19.2163 0.815015 20.9608 0.956881C22.7144 1.09928 24.0675 2.45235 24.2099 4.20595C24.3517 5.95048 24.5 8.71955 24.5 12.6667C24.5 16.6139 24.3517 19.383 24.2099 21.1275C24.0675 22.8811 22.7144 24.2342 20.9608 24.3766C19.2163 24.5185 16.4472 24.6667 12.5 24.6667Z" fill="#FDC555"/>
<path d="M11.4979 24.6636C12.8107 24.6716 14.1235 24.6627 15.436 24.6369C15.4398 24.6017 15.4419 24.566 15.4419 24.5297V15.8876H18.3961C18.8697 15.8876 19.2958 15.5756 19.3651 15.1073C19.4584 14.45 19.4557 13.7826 19.3571 13.126C19.2888 12.6663 18.8793 12.3633 18.4142 12.3633H15.4419C15.4419 9.69985 15.8851 9.31265 18.3832 9.26412C18.8627 9.25452 19.2926 8.93879 19.3625 8.46412C19.4798 7.66679 19.4329 6.96972 19.3593 6.48012C19.2915 6.02679 18.8857 5.73239 18.4281 5.73612C14.0126 5.77452 11.4979 6.29665 11.4979 12.3633H9.21098C8.76618 12.3633 8.37152 12.6417 8.30432 13.0812C8.23178 13.5548 8.18805 14.2412 8.30912 15.0759C8.37845 15.558 8.81258 15.8876 9.30005 15.8876H11.4979V24.6636Z" fill="#23171B"/>
</svg>
