<svg width="25" height="25" viewBox="0 0 25 25" fill="none" xmlns="http://www.w3.org/2000/svg">
<path d="M12.5001 24.9999C9.98176 24.9999 7.94284 24.938 6.34393 24.8552C3.20263 24.6924 0.799456 22.2225 0.641058 18.9939C0.543 16.8864 0.496052 14.7766 0.500259 12.6667C0.500259 10.0784 0.560526 7.98282 0.641058 6.33949C0.799456 3.11093 3.20263 0.641004 6.34393 0.478206C7.94284 0.395984 9.98122 0.333496 12.5001 0.333496C15.0185 0.333496 17.0574 0.395436 18.6563 0.478206C21.7976 0.641004 24.2008 3.11093 24.3592 6.33949C24.4392 7.98282 24.5 10.0778 24.5 12.6667C24.5 15.255 24.4397 17.3506 24.3592 18.9939C24.2008 22.2225 21.7976 24.6924 18.6563 24.8552C17.0574 24.9374 15.019 24.9999 12.5001 24.9999Z" fill="#FDC555"/>
<circle cx="13" cy="13.5" r="5.5" fill="#23171B"/>
<path fill-rule="evenodd" clip-rule="evenodd" d="M18.3667 4.99301C18.3667 4.70226 18.4791 4.42342 18.6791 4.21782C18.8792 4.01223 19.1505 3.89673 19.4334 3.89673H19.9667C20.2496 3.89673 20.5209 4.01223 20.7209 4.21782C20.921 4.42342 21.0333 4.70226 21.0333 4.99301C21.0333 5.28377 20.921 5.56261 20.7209 5.7682C20.5209 5.9738 20.2496 6.0893 19.9667 6.0893H19.4334C19.1505 6.0893 18.8792 5.9738 18.6791 5.7682C18.4791 5.56261 18.3667 5.28377 18.3667 4.99301Z" fill="#23171B"/>
</svg>
