<svg width="360" height="528" viewBox="0 0 360 528" fill="none" xmlns="http://www.w3.org/2000/svg">
<path d="M140.077 115.808C135.547 116.958 130.886 116.853 126.711 118.587C125.618 119.065 124.049 119.949 123.461 121.037C124.188 122.312 125.278 123.356 126.729 123.706C128.031 123.991 129.391 123.677 130.604 123.199L135.909 120.099L140.077 115.808ZM235.694 390.01C230.214 392.79 224.406 395.381 218.47 396.541L213.333 407.242C219.722 399.797 228.225 396.604 235.694 390.01ZM64.2545 136.593C60.0064 135.895 55.517 135.512 51.5504 136.505C51.5395 136.512 51.4663 136.527 51.4444 136.534C49.4556 137.086 47.8763 138.024 47.072 139.974C48.2748 140.478 49.7591 140.606 51.0459 140.58C52.6837 140.536 54.168 140.336 55.7254 140.04L64.2545 136.593ZM7.84854 133.033C6.12299 133.146 4.54001 137.495 4.46689 138.353C3.92947 141.405 4.40109 144.528 5.0043 147.54L6.74814 149.311C8.51392 150.403 11.6872 150.045 13.0691 148.314C15.1493 145.722 14.0452 141.059 12.9338 138.378C12.21 136.746 11.3947 135.337 10.064 134.124C9.53024 133.653 8.60895 132.981 7.84854 133.033ZM18.4432 135.015C18.2384 133.427 18.0483 131.842 17.8728 130.25L15.8146 128.34C12.7108 126.328 8.79541 127.398 6.28751 129.888C7.68771 129.374 9.10248 129.582 10.4076 130.257C16.1656 133.241 19.8689 144.966 15.4308 150.257C13.2263 152.886 8.91238 153.514 6.14493 152.225C9.1427 163.125 14.5716 175.175 18.944 185.596C20.421 189.127 21.9272 192.622 23.4882 196.106C23.1702 188.89 23.3749 182.569 23.5284 175.343C23.6235 170.625 23.6893 165.885 23.5248 161.164C21.3313 152.754 19.7373 144.546 18.4432 135.015ZM39.4605 227.26C38.3528 210.135 33.3188 192.45 27.9593 176.157C27.0892 173.488 26.2849 170.91 25.5391 168.39L26.0912 191.432C26.3141 195.711 26.6176 199.757 27.0234 203.734C30.851 211.727 35.0114 219.596 39.4605 227.26ZM28.7636 38.5598C32.8764 38.0523 36.2617 34.5833 36.9673 30.4279C37.0916 27.2473 35.8888 23.3548 34.5544 20.4226C31.9917 14.77 29.8457 13.9959 29.853 13.9959C26.2886 13.0575 22.5669 14.6459 21.1375 17.841C19.4704 21.5802 21.2984 27.1597 22.45 30.7966L24.1609 36.0403C24.2815 36.2155 24.4058 36.3835 24.5411 36.5588C25.6342 37.9208 26.9503 38.7826 28.7636 38.5598ZM21.1448 69.8645C21.971 67.2682 21.5652 63.8322 20.8633 61.2797C20.4831 59.9031 19.2621 56.7518 18.3116 55.7367C17.7778 55.0173 17.2842 54.4623 16.586 53.8963C14.0634 51.9099 10.2724 52.37 7.81927 54.6449C6.81393 55.6052 6.18515 56.5145 5.57828 57.7414C4.78494 61.2578 5.07013 64.5515 6.01334 68.3199C6.9017 71.5223 9.37668 73.3882 12.6414 73.7534C14.2609 73.9031 15.5587 73.7716 17.1161 73.3116C18.7137 72.7821 19.0062 72.5228 20.282 71.5478C20.7025 71.0147 20.9291 70.5108 21.1448 69.8645ZM44.2972 66.1764C42.8824 65.9865 41.6029 65.7017 40.1552 65.2124C36.4116 63.865 34.1267 61.8019 31.7211 58.6944C33.4065 64.2593 34.8067 69.6819 35.8047 75.4112C37.6509 71.5515 40.9594 68.4988 44.2972 66.1764ZM55.166 53.637C53.1188 46.9218 52.9067 36.095 58.4344 30.6396C55.5974 29.274 53.2138 27.3569 50.5049 24.9797L49.4373 24.0595C46.8636 22.2849 44.7104 20.5687 42.5936 18.2536C42.2573 17.8665 41.9429 17.4868 41.6395 17.0888C40.8973 16.5191 40.1223 15.9677 39.2924 15.4236C37.6107 14.4925 36.0387 13.7184 34.3863 13.1487C35.7572 14.8358 36.9124 17.0303 37.7606 19.0204C39.1644 22.2995 40.6012 27.419 40.1369 30.804C39.5702 33.7544 38.4004 35.8138 36.2581 37.8989C33.6734 40.3016 29.0743 42.2296 25.678 40.5207C26.6066 43.2302 27.5462 45.9359 28.4638 48.6417C30.8438 50.7267 32.2695 53.0601 34.591 56.3282C36.4408 58.8952 38.3492 60.8306 41.3433 61.9954C47.0574 64.2192 50.4317 62.0538 51.0422 64.4091C51.3713 65.6689 50.344 66.1655 49.6092 66.5233C44.4398 69.0465 38.8793 72.8661 36.481 78.3361C36.4299 78.4602 36.3787 78.5807 36.3312 78.7012C36.5505 80.2312 36.7443 81.7722 36.9088 83.3569C36.9161 83.6563 36.9746 84.0909 37.0111 84.3976C37.6985 91.5619 38.4735 98.6861 39.3399 105.829C40.5061 115.509 41.9136 128.096 44.5166 137.071C45.9862 134.95 48.103 133.821 50.5963 133.211C53.616 132.474 58.6501 132.653 61.688 133.193C62.836 133.449 63.9912 133.613 65.1684 133.887C66.1116 134.113 67.8152 134.511 68.4002 135.432C68.7621 136.008 68.689 136.797 68.2503 137.243C67.3217 138.188 63.8669 139.207 62.5326 139.634C60.6315 140.23 58.5696 140.847 56.5626 141.267C54.8041 141.88 53.1078 142.278 51.1556 142.501C49.6896 142.651 48.0847 142.603 46.5273 142.187C46.4359 143.056 46.4578 143.947 46.5054 144.871C46.849 149.676 49.4227 157.505 50.9911 162.292C54.1497 171.932 57.9225 181.81 60.6133 191.567C63.2601 201.313 64.8467 210.244 66.3821 220.195C67.6178 228.181 69.6066 235.707 72.0779 243.398C72.4691 244.617 72.8749 245.834 73.2697 247.052C73.7888 248.168 74.308 249.282 74.8381 250.392C75.0867 250.908 76.8378 254.518 78.1284 257.168C78.6731 253.512 79.9124 247.243 81.6087 243.863C87.2753 233.263 97.3471 229.693 103.068 221.601C103.094 221.557 103.218 221.349 103.229 221.312C103.727 219.961 102.516 217.354 101.994 215.926C94.1263 194.371 86.2626 177.684 80.3255 154.902C79.3201 150.808 78.1064 145.827 78.3879 141.537C76.3662 136.206 74.7504 128.647 73.7962 124.451C73.0614 121.147 72.3595 117.842 71.6539 114.53C70.0672 107.077 68.4111 97.8061 66.1664 90.5833C62.8616 79.9208 58.1748 67.9803 56.3103 56.3903C55.8314 55.5322 55.4914 54.6631 55.1624 53.637H55.166ZM48.6696 18.6151C52.925 22.2776 57.2938 26.5901 62.6605 28.1274C64.7224 27.4738 67.117 27.3459 69.0326 27.5723C70.9154 25.9583 71.3322 22.7742 71.248 20.503C71.0726 15.5442 68.6414 11.2134 65.1757 7.79559C61.2457 3.92133 55.9776 3.00482 50.8083 4.8634C48.1907 5.80188 45.032 7.75909 43.4747 10.1727C43.142 10.7022 42.8641 11.6772 42.8495 11.3887C42.8751 12.1482 43.0981 12.7653 43.4162 13.4518L44.4837 15.2265C45.8985 16.2672 47.2365 17.3882 48.6696 18.6151ZM187.906 151.652C185.836 155.599 185.678 161.617 185.924 165.937C186.168 169.205 186.793 174.507 188.342 177.432C188.729 178.103 190.485 178.772 191.178 178.991C196.226 180.59 204.32 180.597 209.191 178.889C210.429 178.454 211.116 178.052 211.815 176.961C213.566 174.222 214.156 168.971 214.332 165.842C214.541 161.504 214.513 156.172 213.839 151.863L212.84 149.786C210.491 148.106 208.43 147.098 205.603 146.28C199.469 144.601 191.044 145.674 187.906 151.652ZM227.228 140.186C224.458 144.922 223.766 153.152 224.738 158.626C225.03 160.083 225.378 161.288 226.064 162.61C226.777 163.961 227.802 164.797 229.173 165.36C230.995 166.104 233.098 166.039 234.697 164.797L235.795 163.574C235.575 162.482 235.399 161.379 235.278 160.262C234.948 155.541 236.021 142.486 234.484 137.458C234.259 136.721 234.048 136.268 233.318 135.954C231.17 135.037 228.084 138.718 227.228 140.186ZM232.523 285.455L230.704 284.824C232.042 288.107 233.828 291.162 236.455 294.192C238.664 296.668 243.415 300.639 246.72 301.347C245.184 298.637 243.559 296.255 241.693 293.768C240.901 292.722 240.083 291.696 239.26 290.674C237.691 288.947 234.31 286.383 232.523 285.455ZM266.143 342.969C265.334 342.431 263.45 341.293 262.559 341.868C260.899 342.943 258.932 352.563 258.459 354.729C257.647 358.465 256.881 362.367 255.722 366.006C254.622 369.25 253.37 372.715 251.716 375.901C252.209 375.512 252.701 375.121 253.194 374.732C254.881 373.264 256.342 371.886 257.819 370.269C258.927 368.834 260.98 364.411 261.754 362.37C264.19 355.949 265.448 349.757 266.143 342.969ZM196.352 231.114C188.628 231.791 181.161 231.051 174.592 226.819C174.586 235.162 174.698 243.503 174.951 251.831C175.454 268.28 176.26 286.128 179.276 302.307C179.991 306.073 180.794 309.589 181.98 313.239C185.024 321.435 188.373 327.677 193.316 334.839C194.471 336.476 195.789 338.148 196.944 339.8C201.638 344.986 206.225 349.965 209.549 356.36C214.031 365.017 216.567 379.252 217.804 388.832C217.841 389.142 217.876 389.454 217.907 389.766C220.949 383.97 226.317 373.574 227.666 367.021C230.352 353.984 228.66 313.601 228.273 299.314C228.256 298.606 228.236 297.899 228.218 297.191C228.223 294.992 228.073 292.658 228.033 290.432C228.027 289.692 228.022 288.953 228.031 288.215C226.216 284.539 225.055 280.601 224.038 276.092C220.934 261.77 221.062 233.237 221.249 218.241C218.833 223.956 214.578 226.994 208.731 228.928C204.547 230.216 200.695 230.723 196.352 231.114ZM176.513 175.807C174.98 189.31 174.695 207.86 174.61 222.057C180.539 227.074 187.618 228.089 195.175 227.764C198.996 227.604 204.241 227.016 207.849 226.004C213.349 224.46 217.113 221.776 219.542 216.569L221.345 211.373L221.669 189.244L221.513 185.125C221.174 176.625 221.091 166.042 218.232 157.936C218.519 164.176 218.695 178.396 212.299 181.832C208.3 183.982 201.737 184.315 197.291 184.023C193.928 183.8 186.916 182.854 184.941 179.422C182.957 175.679 182.301 170.362 181.984 166.188C181.687 161.734 181.938 156.096 183.511 151.856C179.058 157.834 177.377 168.858 176.513 175.807ZM124.634 126.693C127.954 133.237 132.666 139.923 135.964 146.477C139.576 153.919 142.127 160.791 144.664 168.642C144.743 168.818 144.833 169.168 144.897 169.369C149.559 183.245 154.584 193.104 162.044 205.621C164.602 209.901 167.565 214.644 170.698 218.201C170.738 214.064 170.802 209.927 170.888 205.789C170.903 205.015 170.883 204.128 170.942 203.368C171.167 194.174 171.563 185.538 172.663 176.42C172.936 173.802 174.326 157.859 173.616 156.344C173.525 156.107 173.435 155.873 173.336 155.636C170.527 149.271 166.844 143.239 163.384 137.203C160.823 132.77 158.304 128.3 155.761 123.853C147.957 110.207 140.044 96.6266 132.11 83.0612C130.798 80.8191 129.507 78.4821 128.151 76.2802C121.578 65.2745 103.555 32.5895 92.6164 24.8081C89.0812 22.2922 82.5629 24.2239 78.8814 25.648C77.112 26.3454 75.3316 27.2656 73.5768 28.1274C73.4854 28.2917 73.394 28.4524 73.2953 28.6057C76.5636 29.7523 80.1939 32.3851 82.6872 34.7257C87.798 39.6626 91.2711 44.6104 94.8502 50.6939C98.1624 56.4268 99.6795 60.8087 102.169 66.6548C106.538 76.722 111.29 83.6856 114.559 94.5635C116.734 102.224 118.441 110.345 121.94 118.032C123.055 117.039 124.159 116.465 125.537 115.881C130.553 114.041 134.768 114.607 139.875 113.588L142.226 112.964C143.579 112.956 143.897 114.052 143.067 115.1C141.648 116.882 139.587 118.799 137.708 120.044L137.13 120.639C133.884 123.882 128.583 127.924 123.856 125.039C124.09 125.598 124.353 126.138 124.634 126.693ZM205.083 475.516C205.136 476.028 205.455 479.427 205.55 479.643C207.262 492.043 209.772 503.902 217.74 513.911C219.634 516.044 222.674 519.114 225.622 521.444C224.494 518.963 223.275 516.48 222.203 514.08C218.132 504.612 214.583 495.47 211.393 485.659C208.082 475.206 205.565 465.02 204.19 454.263C204.162 461.288 204.421 468.223 205.083 475.516ZM98.5316 133.887L95.1792 133.865C92.8321 134.46 90.485 135.008 88.1855 135.815C86.3795 136.45 84.5078 137.261 83.0235 138.448C82.5117 138.864 82.1278 139.244 81.7696 139.788C82.3472 141.599 82.87 142.884 83.3014 143.439C84.1129 144.487 86.9462 143.297 87.7542 142.826C91.5526 140.533 94.2433 137.308 97.6541 134.489C97.9466 134.281 98.2391 134.08 98.5316 133.887ZM72.0633 49.1237C72.9626 55.9156 65.8082 62.7732 59.8748 59.9652C63.5562 72.9756 69.1459 84.7408 72.1255 97.6454C73.4123 103.21 77.7079 125.379 80.8885 136.823C82.3874 135.607 85.1658 134.369 86.9937 133.953C89.2604 133.328 91.3771 132.938 93.6547 132.711C93.9216 132.631 94.1336 132.576 94.2177 132.554C95.6617 132.182 101.167 131.313 102.217 131.707C103.072 132.028 103.445 132.729 103.123 133.496C102.765 134.358 100.261 135.895 99.3907 136.633C95.9103 139.959 93.662 143.034 89.5163 145.769C87.4763 147.091 84.2592 148.055 81.8975 146.919C83.9667 157.549 90.0939 173.59 93.8228 183.734C94.5357 185.677 95.3145 187.619 96.0675 189.547C99.3395 197.902 102.692 206.162 105.715 214.619C106.732 217.452 108.34 220.768 106.425 223.693C100.458 232.064 90.0464 236.305 84.8734 245.353C82.7054 249.546 81.2724 257.285 80.5339 261.853C80.4461 262.4 80.172 263.106 79.6455 263.33C77.7408 264.147 77.2692 262.26 76.8634 261.221C75.3097 257.542 73.7852 253.91 72.396 250.165C72.0268 249.159 71.6648 248.148 71.3321 247.129C71.0177 246.461 70.7107 245.786 70.4145 245.111C66.9781 237.344 64.4665 229.137 62.9128 220.786C61.147 211.19 59.3812 202.156 56.8295 192.721L54.4166 184.687C51.3932 174.762 47.4669 165.181 44.6007 154.986C43.3906 150.684 41.9063 144.378 43.1786 139.978C42.7508 139.448 42.451 138.901 42.1696 138.192C39.5008 130.98 38.1225 121.924 36.9271 114.3C36.5176 111.656 36.0789 108.958 35.7389 106.307C34.7226 99.1243 33.8452 91.9965 33.1031 84.781L31.2605 72.6652C29.7324 65.2526 27.4877 58.0591 25.0785 50.9166C24.3145 50.3433 23.4407 49.7883 22.4134 49.2442C18.5602 47.3235 13.7344 47.5097 10.2285 50.0658C12.093 49.5181 13.5919 49.5144 15.5112 49.9124C22.779 51.5483 26.804 64.1096 24.7641 70.9709C23.7916 74.2317 21.5396 75.9626 18.3116 77.0179C14.5826 78.2302 10.2504 77.9745 6.93457 75.8749C7.80832 78.336 8.76617 80.768 9.76056 83.1743C12.4549 89.6522 15.3247 95.9255 17.6133 102.568C19.9091 110.236 19.9969 118.967 20.856 126.945C22.7424 143.713 26.2776 158.936 31.6334 174.919C37.5449 192.545 44.0962 215.586 43.5953 234.338C43.5332 236.616 40.9668 237.251 39.775 235.599C39.7531 235.566 39.4642 235.16 39.4788 235.151C39.4788 235.151 38.8976 234.065 38.8318 233.936C35.154 227.717 31.7723 221.688 28.5588 215.543L31.6005 231.077C36.7114 252.972 41.7601 274.848 47.1671 296.675C50.8668 311.531 54.7603 326.612 59.2057 341.257C59.6774 342.802 60.1453 344.356 60.6023 345.904C63.154 354.562 66.3895 363.374 69.7272 371.763C74.6772 383.961 84.5736 402.702 88.1417 413.662C88.7815 416.462 88.9972 421.169 89.2202 424.091C91.0737 448.616 92.8321 477.18 98.0125 501.256C98.1221 501.753 99.2372 506.409 98.9739 506.497C98.495 506.657 96.583 500.529 96.3966 499.887C90.3827 479.524 87.809 445.562 85.7983 424.381C85.5789 422.07 85.2061 416.794 84.5919 414.669C80.0111 402.247 71.4272 386.501 65.9398 372.936C62.5874 364.484 59.4361 355.762 56.8295 347.05C56.3688 345.513 55.8277 343.914 55.4256 342.371C51.0861 327.57 47.1414 312.817 43.3833 297.857C37.9361 275.901 33.0153 253.94 28.164 231.848C27.718 229.785 27.2976 227.724 26.8954 225.654C25.6854 219.114 24.8226 213.103 24.2413 207.005C23.0678 204.606 21.9089 202.167 20.7573 199.673C18.8636 195.507 17.0576 191.337 15.2992 187.108C11.8992 178.962 8.53217 171.176 5.54535 162.833C3.1727 156.121 1.03409 148.891 0.547852 141.767C0.277313 137.82 1.13641 133.12 3.56757 129.87C6.7262 125.653 13.4822 123.666 17.6608 128.3C16.8967 121.041 16.8675 110.167 14.9189 103.426C13.0873 97.5651 10.7988 91.9527 8.63089 86.2124C7.12103 82.1957 5.66968 78.0914 4.62411 73.9104C4.61679 73.8994 4.60583 73.8885 4.59851 73.8775C3.38843 72.4425 2.75229 71.1754 2.20758 69.3825C0.785461 63.6824 0.690399 58.9938 2.78156 53.4362C6.02792 45.3663 15.1931 41.9375 23.1446 45.2714C21.8833 41.6198 20.6184 37.9683 19.4193 34.2948C17.6389 28.8431 15.0834 21.7153 17.5987 16.238C19.1414 12.8822 22.5231 10.5233 26.1716 10.0486L29.078 10.0303C32.9056 9.6944 36.0204 10.5891 39.3289 12.108C39.2961 11.8232 39.2741 11.5275 39.2741 11.2061C39.3911 9.23065 41.1715 6.87543 42.568 5.53168C47.6789 0.616699 55.7108 -1.59613 62.4375 1.27759C67.8189 3.57806 72.1401 9.0152 74.0667 14.3867C75.3316 17.9177 75.6205 22.2338 74.5456 25.8196C75.7191 25.1112 76.9 24.432 78.0954 23.8368C82.5884 21.6459 89.5529 19.528 94.1665 22.4675C99.7088 26.1701 104.355 32.3084 108.3 37.6068C116.27 48.3752 124.89 62.7951 131.562 74.2938C143.367 94.6183 155.257 114.786 166.796 135.278C170.3 141.493 173.972 147.646 176.739 154.233L177.289 156.486C178.396 153.726 179.707 151.283 181.817 148.924C184.73 146.032 187.387 144.484 191.321 143.33C191.607 143.257 191.886 143.187 192.163 143.125C193.91 142.413 195.639 142.026 197.72 141.793C200.743 141.5 204.093 141.844 206.997 142.764C206.989 142.742 206.982 142.72 206.975 142.694C205.803 138.397 211.672 132.711 214.336 130.641C217.951 127.833 223.359 125.894 228.038 126.536C231.872 127.062 234.657 128.983 236.301 132.507L237.363 135.684C237.467 135.924 237.559 136.18 237.649 136.454C238.584 139.317 238.758 143.943 238.859 146.956C238.954 151.243 238.752 155.803 238.969 160.014C239.858 167.171 243.356 174.149 246.275 180.689C251.512 192.611 251.936 198.395 253.854 210.456C255.045 217.759 256.501 222.733 258.782 229.719C261.394 237.676 267.349 255.035 268.145 263.002C269.417 273.715 269.802 284.222 270.141 294.987C270.607 309.846 271.051 325.891 269.377 340.581C275.669 345.16 283.582 355.784 287.949 362.062L303.132 384.33C312.459 398.363 321.303 412.744 329.684 427.361C338.892 443.417 349.448 463.088 356.956 480.19C357.231 480.816 359.815 486.672 359.468 486.837C358.991 487.066 350.138 470.352 349.609 469.379C342.238 455.81 334.652 442.341 326.721 429.09C313.558 407.099 299.341 385.266 284.645 364.237C280.714 358.614 274.054 349.66 268.803 345.032C267.485 354.156 263.88 366.274 257.341 373.218C257.17 373.394 256.851 373.704 256.452 374.064C255.845 374.756 255.205 375.429 254.503 376.136C253.357 377.305 251.8 378.562 250.535 379.623C249.472 380.511 248.616 381.148 247.932 381.588C247.811 381.724 247.688 381.862 247.565 381.996C247.545 381.946 247.525 381.896 247.505 381.847C244.214 383.761 245.556 380.388 245.756 380.263C249.069 376.204 251.195 370.056 252.704 365.063C254.631 358.473 256.017 345.775 258.809 340.659C260.474 337.607 263.631 337.436 266.519 338.816C267.637 324.48 266.968 309.549 266.361 295.126C265.912 284.499 265.483 274.075 264.218 263.499C263.109 254.637 257.902 239.673 255.036 230.941C252.688 223.759 251.181 218.581 249.954 211.066C248.088 199.37 247.699 193.816 242.696 182.255C240.241 176.65 237.555 171.012 236.123 165.049L235.203 166.042C233.324 167.587 230.803 167.817 228.546 167.065C225.82 166.159 224.342 164.359 223.297 161.792C220.692 155.395 221.455 144.473 224.599 138.689C226.179 135.782 229.983 131.882 233.749 132.7C229.965 126.883 220.974 129.377 216.354 133.153C214.365 134.866 212.673 136.549 211.309 138.809C211.083 139.273 210.051 141.157 210.375 141.76L213.382 144.885C214.211 145.703 214.939 146.466 215.646 147.376C218.2 149.651 219.561 151.984 220.866 155.172C220.912 155.343 221.044 155.636 221.113 155.818C222.265 159.079 222.861 162 223.332 165.414C224.12 171.947 224.122 177.8 223.972 184.278C224.538 191.629 224.723 199.001 224.859 206.366C225.145 221.915 224.896 238.108 225.614 253.563C226.053 263.08 226.832 274.062 230.062 283.139C231.166 283.078 232.321 283.563 233.258 284.099C234.438 284.796 235.432 285.563 236.446 286.435C237.097 286.666 238.644 287.947 238.89 288.154C242.848 291.465 246.304 295.618 249.151 299.892C249.782 300.841 250.686 301.931 250.178 303.168C249.89 303.869 249.236 304.271 248.51 304.39C244.601 305.029 239.99 301.883 237.071 299.538C234.011 297.077 232.061 294.856 230.053 291.77C230.134 293.343 230.205 294.917 230.321 296.495C230.335 296.681 230.37 296.923 230.372 297.106C231.459 316.673 232.607 335.566 232.095 355.204C231.943 359.504 231.718 363.429 230.973 367.683C229.532 375.149 223.702 386.398 220.309 392.97C226.498 391.227 232.807 387.912 238.259 384.947C239.268 384.387 240.351 383.644 241.391 383.201C242.203 382.906 243.024 382.928 243.631 383.609C244.799 384.919 243.438 386.545 242.604 387.597C236.976 394.708 231.25 397.624 224.153 402.595C216.495 408.059 213.186 412.261 209.859 421.171C205.559 437.313 207.064 451.231 210.48 467.349C213.661 481.814 219.938 499.072 225.825 512.518C227.64 516.59 229.829 520.822 231.373 524.968C232.022 526.842 230.11 528.541 228.39 527.838C223.642 525.665 218.231 520.4 214.75 516.473C206.175 505.708 203.477 493.488 201.628 480.139C201.465 478.852 201.319 477.566 201.185 476.277C200.061 464.233 200.028 453.187 200.622 441.134C201.865 425.607 205.315 415.432 211.875 401.441C213.014 399.118 214.193 396.835 215.382 394.572C215.168 392.788 215.078 390.968 214.902 389.184C213.743 379.283 212.326 370.458 209.118 360.965C208.168 358.449 207.138 356.364 205.779 354.048C202.952 349.302 199.456 345.298 196.059 341.156C194.799 340.073 193.347 338.348 192.491 337.326C186.516 330.016 182.596 323.072 179.115 314.278C171.011 293.273 170.564 247.885 170.661 223.729C165.964 219.439 162.84 214.498 159.384 208.868C151.779 196.379 145.689 184.337 141.093 170.45C138.512 162.661 136.106 155.581 132.545 148.161C129.69 142.333 126.126 136.852 123.11 131.104C121.552 128.139 119.22 124.002 120.203 120.73C115.966 113.347 113.619 103.55 111.133 95.5421C107.799 85.1863 102.798 77.9271 98.5243 68.1811C96.1041 62.5359 94.6344 58.2124 91.4283 52.6584C87.2899 45.4832 79.6528 34.6308 71.1274 32.0491C68.9558 31.3919 70.4328 31.9323 67.658 32.4326C65.1794 32.8853 63.0115 32.2134 62.953 32.2207C61.9111 32.6954 61.1104 33.3819 60.2842 34.4445C59.5384 35.4925 59.0412 36.5222 58.672 37.625C61.1214 35.6276 64.5944 35.372 67.0987 37.5301C70.0709 40.0862 71.5771 45.4576 72.0633 49.1237ZM65.4865 39.3193C63.4538 37.3256 60.3391 38.1545 58.5806 40.1592C58.321 40.4659 58.0944 40.7617 57.8969 41.0648C57.3705 44.9683 57.6154 48.7476 58.6318 52.6036C59.5275 55.5869 61.3261 58.2964 64.6639 56.792C67.351 55.5833 69.3543 52.4539 69.0911 49.4925C68.8279 46.5311 67.7458 41.5358 65.4865 39.3193Z" fill="#EFE7E5" fill-opacity="0.5"/>
</svg>
